# xmcd
#
# Track frame offsets:
#	150
#	13440
#	27061
#	39749
#	56087
#	75741
#	91055
#	104715
#	118622
#	135008
#	148312
#	164991
#	180197
#	193661
#	207254
#	220698
#	234953
#	251148
#	266253
#	285029
#	296531
#	311727
#	324906
#	338339
#
# Disc length: 4682 seconds
#
# Revision: 0
# Processed by: cddbd v1.5.2PL0 Copyright (c) Steve Scherf et al.
# Submitted via: EZCDAudioConverter 8.0.7.1
#
DISCID=53124818
DTITLE=Truck Stop - The Best
DYEAR=1900
DGENRE=
TTITLE0=Die Frau mit dem Gurt
TTITLE1=Take It Easy, altes Haus 
TTITLE2=Der wilde, wilde Westen
TTITLE3=Old Texas Town, die Western-Stadt
TTITLE4=Nein danke, ich rauch' nicht mehr
TTITLE5=Mein Opa, das bin ich
TTITLE6=Mia miass'n jo was moch'n
TTITLE7=Die Elbbrücke ist aus Eisen
TTITLE8=Silverrado
TTITLE9=Die Beste aller Frauen
TTITLE10=Engel and Held
TTITLE11=Lass Dir nie den Tag verderben
TTITLE12=Arizona, Arizona
TTITLE13=Oh Winnetou, oh Winnetou
TTITLE14=Lucky Luke
TTITLE15=Wilde Pferde
TTITLE16=Darf mein Hund mit in den Himmel?
TTITLE17=Emmylou, Emmylou
TTITLE18=Route 66
TTITLE19=Großstadtrevier
TTITLE20=Weisser Mann
TTITLE21=Die Cowboys der Nation
TTITLE22=Frag mich was leichteres
TTITLE23=Sagt'n Cowboy Howdy, Howdy
EXTD=
EXTT0=
EXTT1=
EXTT2=
EXTT3=
EXTT4=
EXTT5=
EXTT6=
EXTT7=
EXTT8=
EXTT9=
EXTT10=
EXTT11=
EXTT12=
EXTT13=
EXTT14=
EXTT15=
EXTT16=
EXTT17=
EXTT18=
EXTT19=
EXTT20=
EXTT21=
EXTT22=
EXTT23=
PLAYORDER=
